<?xml version="1.0" encoding="utf-8"?>
<!-- Generator: Adobe Illustrator 23.1.0, SVG Export Plug-In . SVG Version: 6.00 Build 0)  -->
<svg version="1.1" id="Layer_1" xmlns="http://www.w3.org/2000/svg" xmlns:xlink="http://www.w3.org/1999/xlink" x="0px" y="0px"
	 viewBox="0 0 1200 1200" enable-background="new 0 0 1200 1200" xml:space="preserve">
<g>
	<g>
		<polygon fill="#3BB293" points="1135.663,716.106 1128.403,739.546 1122.615,763.262 1115.637,786.668 1107.402,809.668 
			1098.32,832.357 1089.511,855.265 1075.783,875.682 1065.32,897.9 1052.099,918.543 1037.497,938.235 1020.949,956.332 
			1004.276,974.181 988.914,993.347 970.416,1009.417 951.165,1024.509 932.057,1039.721 911.702,1053.219 891.964,1067.548 
			870.844,1079.726 849.793,1092.133 827.377,1101.837 804.444,1110.173 782.298,1120.631 758.813,1127.383 735.004,1132.776 
			711.294,1138.397 687.46,1143.622 663.343,1147.413 638.906,1148.073 614.634,1150.327 590.263,1149.671 565.889,1149.957 
			541.567,1148.288 517.266,1146.097 493.258,1141.746 469.675,1135.525 445.468,1131.851 422.154,1124.586 399.1,1116.552 
			376.612,1107.064 355.182,1095.362 333.369,1084.592 311.38,1073.939 290.456,1061.315 271.356,1046.048 251.953,1032.038 
			234.081,1016.126 216.451,999.955 201.348,981.335 183.382,965.328 168.319,946.697 155.365,926.523 140.858,907.461 
			129.155,886.57 118.287,865.191 107.384,843.865 97.023,822.231 88.247,799.898 81.493,776.873 75.257,753.747 68.393,730.747 
			64.067,707.149 61.027,683.364 57.255,659.65 56.076,635.675 54.629,611.7 56.266,587.724 57.173,563.761 59.549,539.895 
			61.555,515.94 68.402,492.804 71.44,468.932 78.266,445.915 84.205,422.625 93.98,400.637 101.433,377.778 111.065,355.761 
			123.594,335.21 134.148,313.622 146.466,292.983 161.28,274.035 175.336,254.582 191.041,236.432 207.571,219.055 
			224.698,202.282 241.476,185.029 260.698,170.586 280.27,156.704 300.374,143.649 320.747,131.043 341.085,118.27 
			362.715,107.858 384.882,98.688 406.484,88.1 429.438,80.986 452.387,74.011 475.403,67.198 498.982,62.701 522.562,58.355 
			546.313,55.084 570.155,52.525 594.121,51.801 618.077,50 642.04,51.511 666.021,52.418 689.654,56.757 713.323,60.294 
			736.819,64.869 760.175,70.186 783.551,75.743 805.757,84.92 828.272,93.189 850.769,102.361 871.428,115.223 892.878,126.505 
			913.415,139.392 933.621,152.836 952.122,168.551 969.82,185.087 988.388,200.683 1005.122,218.219 1021.942,235.745 
			1035.89,255.642 1051.326,274.427 1062.987,295.774 1076.545,315.937 1088.302,337.204 1096.207,360.277 1106.587,382.186 
			1115.926,404.607 1122.514,427.98 1127.771,451.659 1134.144,475.056 1138.66,498.883 1142.163,522.884 1143.162,547.135 
			1144.288,571.302 1145.818,595.476 1147.233,619.76 1143.98,643.872 1142.147,668.034 1140.081,692.233 		"/>
	</g>
	<g>
		<g>
			<path fill="#FF8492" d="M732.138,699.461l-30.396,11.599c-70.671,27.009-92.701,92.484-164.625,81.556
				c-7.247-1.106-40.744-64.277-47.864-66.061l-13.859-3.482l-44.203-11.042c86.305-14.963,104.587-130.711,107.652-157.116
				c0.383-3.433,0.511-5.34,0.511-5.34l0.382-0.042l1.907-0.169l101.561-9.488c0.167,4.705,0.462,9.284,0.926,13.776
				c2.783,29.461,10.825,53.836,21.03,73.635C691.542,678.587,732.138,699.461,732.138,699.461z"/>
		</g>
		<g>
			<path fill="#15000C" d="M660.065,610.345c-1.333,0.034-2.7,0.067-4.066,0.066c-52.829-0.026-95.668-26.837-95.652-59.847
				c0.001-1.025,0.035-2.051,0.138-3.042l81.879-7.649C643.41,568.682,650.609,591.956,660.065,610.345z"/>
		</g>
		<g>
			<path fill="#FF9637" d="M367.59,406.608c-0.891,1.568-1.866,3.051-2.969,4.492c-20.443,27.244-95.421,20.427-95.391-40.949
				c0.025-51.583,74.746-40.484,98.522-35.641c4.492,0.935,7.162,1.615,7.162,1.615S384.049,378.938,367.59,406.608z"/>
		</g>
		<g>
			<path fill="#FF8492" d="M791.974,328.688c0,0,105.662-27.213,105.632,34.131c-0.03,61.344-75.009,68.124-95.444,40.85
				C781.727,376.396,791.974,328.688,791.974,328.688z"/>
		</g>
		<g>
			<path fill="#15000C" d="M839.661,384.928L839.661,384.928c-0.932,0-1.687-0.756-1.687-1.687
				c0.007-15.692-25.898-25.602-26.158-25.699c-0.804-0.301-1.252-1.158-1.044-1.992c0.208-0.83,0.985-1.382,1.862-1.26
				l51.117,6.842c0.923,0.124,1.572,0.972,1.446,1.896c-0.122,0.923-0.985,1.562-1.895,1.448l-40.699-5.448
				c8.234,4.753,18.748,13.017,18.745,24.213C841.347,384.173,840.593,384.928,839.661,384.928z"/>
		</g>
		<g>
			<path fill="#FF8492" d="M812.83,371.008c-0.006,13.225-1.623,26.109-4.723,38.527c-17.412,70.394-81.57,126.397-163.977,144.117
				c-17.931,3.849-36.709,5.875-56.037,5.865c-16.361-0.008-32.297-1.5-47.64-4.304c-0.551-0.085-1.102-0.17-1.611-0.298
				c-86.714-16.275-154.461-74.716-171.253-148.307c-2.665-11.615-4.058-23.568-4.052-35.818
				c0.006-12.419,1.411-24.541,4.214-36.281c0.128-0.678,0.255-1.314,0.425-1.949c2.124-8.688,5.01-17.164,8.532-25.385
				c23.551-55.218,76.936-98.51,143.83-116.153c7.207-1.947,14.54-3.554,22.043-4.864c14.752-2.535,30.011-3.885,45.694-3.877
				c17.421,0.008,34.374,1.67,50.649,4.857c11.019,2.125,21.699,4.927,31.997,8.364c66.875,22.285,118.011,70.715,135.403,130.276
				c0.085,0.255,0.127,0.466,0.212,0.72C810.683,340.743,812.838,355.664,812.83,371.008z"/>
		</g>
		<g>
			<g>
				<path fill="#15000C" d="M491.93,363.553l-6.699-0.003c-0.491,0-0.889-0.398-0.888-0.889l0.003-5.758
					c0-0.491,0.398-0.889,0.889-0.888l6.699,0.003c0.491,0,0.889,0.398,0.888,0.889l-0.003,5.758
					C492.819,363.155,492.421,363.553,491.93,363.553z"/>
			</g>
		</g>
		<g>
			<g>
				<path fill="#15000C" d="M672.071,364.582l-6.699-0.003c-0.491,0-0.889-0.398-0.888-0.889l0.003-5.758
					c0-0.491,0.398-0.889,0.889-0.888l6.699,0.003c0.491,0,0.889,0.398,0.888,0.889l-0.003,5.758
					C672.96,364.184,672.562,364.582,672.071,364.582z"/>
			</g>
		</g>
		<g>
			<path fill="#FFD4DE" d="M806.536,326.499c-41.329,5.618-91.892-2.461-141.345-25.458c-27.672-12.899-52.036-29.06-71.991-46.999
				c-23.387-21.035-40.839-44.483-50.619-67.885c14.752-2.535,30.011-3.885,45.694-3.877c17.421,0.008,34.374,1.67,50.649,4.857
				C721.527,203.157,786.691,257.4,806.536,326.499z"/>
		</g>
		<g>
			<path fill="#15000C" d="M715.35,453.18c-0.016,0-0.03,0-0.046,0c-23.661-0.012-45.902-9.236-62.623-25.974
				c-16.722-16.738-25.924-38.987-25.911-62.648c0.023-48.826,39.757-88.535,88.578-88.535c0.016,0,0.03,0,0.043,0
				c23.661,0.012,45.898,9.236,62.62,25.976c16.722,16.738,25.924,38.986,25.915,62.645h-1.687h1.687
				c-0.01,23.661-9.236,45.9-25.974,62.623C761.221,443.979,738.991,453.18,715.35,453.18z M715.346,279.398
				c-46.966,0-85.18,38.193-85.204,85.162c-0.013,22.76,8.84,44.16,24.926,60.261c16.086,16.101,37.477,24.974,60.235,24.985
				c0.013,0,0.033,0,0.046,0c22.742,0.002,44.122-8.85,60.215-24.926c16.102-16.086,24.976-37.478,24.985-60.236
				c0.01-22.76-8.84-44.16-24.926-60.261c-16.086-16.101-37.477-24.974-60.235-24.985
				C715.376,279.398,715.359,279.398,715.346,279.398z"/>
		</g>
		<g>
			<path fill="#FFD4DE" d="M679.417,159.013c-0.021,42.683-32.378,77.805-73.919,82.151c-2.882,0.295-5.807,0.463-8.774,0.461
				c-28.06-0.014-52.849-14.013-67.758-35.383c-3.304-4.706-6.141-9.836-8.427-15.22c-4.149-9.878-6.433-20.73-6.427-32.09
				c0.018-36.791,24.066-67.933,57.302-78.641c8.012-2.581,16.533-3.976,25.391-3.972
				C642.454,76.342,679.439,113.363,679.417,159.013z"/>
		</g>
		<g>
			<path fill="#A5C8B2" d="M1001.343,1026.261c-221.963,149.727-527.32,165.347-760.882,20.018c-15.17-9.459-30-19.554-44.533-30.37
				l50.156-114.885c10.064-37.506,31.654-70.938,61.633-95.592l114.403-93.915l9.838-8.091c4.537-3.77,9.794-6.226,15.263-7.41
				c9.199-2.03,19.116-0.457,27.421,4.93l37.076,23.839c42.46,22.739,65.553,37.882,95.904,33.32
				c20.983-3.169,45.403-15.747,82.122-41.711l35.148-20.371c9.624-5.59,21.661-4.609,30.22,2.473l130.327,107.215
				c29.955,24.683,51.513,58.136,61.541,95.652L1001.343,1026.261z"/>
		</g>
		<g>
			<path fill="#15000C" d="M828.57,1112.416c-0.804,0-1.519-0.58-1.661-1.402l-41.417-241.698c-0.155-0.918,0.461-1.791,1.381-1.947
				c0.909-0.157,1.789,0.456,1.947,1.377l41.417,241.698c0.155,0.918-0.461,1.791-1.381,1.947
				C828.761,1112.408,828.665,1112.416,828.57,1112.416z"/>
		</g>
		<g>
			<path fill="#15000C" d="M346.229,1112.182c-0.096,0-0.194-0.008-0.29-0.025c-0.919-0.158-1.535-1.031-1.377-1.949l41.648-241.656
				c0.155-0.918,1.038-1.527,1.951-1.376c0.919,0.158,1.535,1.031,1.377,1.949l-41.648,241.656
				C347.748,1111.602,347.033,1112.182,346.229,1112.182z"/>
		</g>
		<g>
			<path fill="#FF97ED" d="M307.028,978.66c-0.01,19.656-9.823,35.586-21.919,35.58s-21.894-15.945-21.885-35.602
				s21.919-35.58,21.919-35.58S307.038,959.004,307.028,978.66z"/>
		</g>
		<g>
			<path fill="#FF97ED" d="M471.05,1015.234c-19.133,5.463-37.369,0.347-40.731-11.428c-3.362-11.774,9.423-25.748,28.557-31.211
				s40.731,11.428,40.731,11.428S490.183,1009.771,471.05,1015.234z"/>
		</g>
		<g>
			<path fill="#FF97ED" d="M487.204,849.813c-0.01,19.898-9.944,36.023-22.189,36.017c-12.245-0.006-22.163-16.141-22.154-36.039
				c0.01-19.898,22.189-36.017,22.189-36.017S487.214,829.915,487.204,849.813z"/>
		</g>
		<g>
			<path fill="#FF97ED" d="M672.223,895.215c-18.901,5.397-36.916,0.342-40.237-11.289c-3.321-11.631,9.309-25.435,28.21-30.832
				c18.901-5.397,40.237,11.289,40.237,11.289S691.124,889.819,672.223,895.215z"/>
		</g>
		<g>
			<path fill="#FF97ED" d="M686.332,1027.93c-0.01,19.898-9.944,36.023-22.189,36.017c-12.245-0.006-22.163-16.141-22.154-36.039
				c0.01-19.898,22.189-36.017,22.189-36.017S686.342,1008.033,686.332,1027.93z"/>
		</g>
		<g>
			<path fill="#FF97ED" d="M873.693,1066.292c-19.133,5.463-37.369,0.347-40.731-11.428c-3.362-11.774,9.423-25.748,28.557-31.211
				s40.731,11.428,40.731,11.428S892.826,1060.829,873.693,1066.292z"/>
		</g>
		<g>
			<path fill="#FF97ED" d="M877.145,871.194c-0.01,19.898-9.944,36.023-22.189,36.017c-12.245-0.006-22.163-16.141-22.154-36.039
				c0.01-19.898,22.189-36.017,22.189-36.017S877.155,851.297,877.145,871.194z"/>
		</g>
		<g>
			<path fill="#FF97ED" d="M546.498,1121.262c-18.901,5.397-36.916,0.342-40.237-11.289c-3.321-11.631,9.309-25.435,28.21-30.832
				c18.901-5.397,40.237,11.289,40.237,11.289S565.399,1115.865,546.498,1121.262z"/>
		</g>
		<g>
			<path fill="#15000C" d="M726.704,256.238c-0.399,0-0.797-0.14-1.12-0.425c-13.941-12.354-30.808-21.486-48.771-26.407
				c-0.9-0.247-1.43-1.175-1.183-2.074c0.25-0.893,1.17-1.415,2.073-1.181c18.461,5.058,35.793,14.442,50.122,27.139
				c0.695,0.618,0.761,1.684,0.142,2.381C727.633,256.045,727.168,256.238,726.704,256.238z"/>
		</g>
		<g>
			<path fill="#15000C" d="M737.834,250.963c-0.494,0-0.988-0.217-1.321-0.638c-6.728-8.465-14.857-15.547-24.155-21.048
				c-0.801-0.474-1.068-1.509-0.593-2.31c0.478-0.806,1.512-1.064,2.313-0.593c9.654,5.712,18.089,13.063,25.078,21.852
				c0.58,0.728,0.458,1.791-0.27,2.371C738.572,250.842,738.203,250.963,737.834,250.963z"/>
		</g>
		<g>
			<path fill="#15000C" d="M971.477,959.752c-0.6,0-1.18-0.32-1.483-0.885c-3.878-7.17-6.804-14.877-9.631-22.331l-1.71-4.479
				c-7.143-18.516-15.628-36.783-23.829-54.449l-13.262-28.56c-0.392-0.845-0.026-1.848,0.817-2.241
				c0.85-0.39,1.852-0.026,2.241,0.82l13.262,28.56c8.227,17.715,16.735,36.033,23.921,54.655l1.713,4.498
				c2.791,7.351,5.674,14.951,9.443,21.923c0.445,0.819,0.138,1.844-0.679,2.287C972.024,959.686,971.751,959.752,971.477,959.752z"
				/>
		</g>
		<g>
			<path fill="#15000C" d="M901.15,824.334c-0.54,0-1.071-0.259-1.397-0.74c-7.414-10.928-16.59-20.407-27.275-28.18
				c-0.755-0.549-0.919-1.603-0.372-2.356c0.55-0.758,1.605-0.918,2.356-0.372c11.002,8.002,20.452,17.763,28.086,29.013
				c0.521,0.771,0.32,1.82-0.448,2.343C901.806,824.24,901.477,824.334,901.15,824.334z"/>
		</g>
		<g>
			<path fill="#FFE99C" d="M470.472,733.837c-0.553,3.984-3.691,7.076-6.617,9.83c-35.281,33.172-70.52,66.343-105.801,99.514
				c-14.503,13.684-29.26,27.622-39.356,44.826c-11.836,20.255-16.509,43.776-23.98,66.025
				c-8.659,25.852-21.26,50.387-37.208,72.463c-4.962,6.907-10.688,13.685-17.049,19.786c-15.17-9.459-30-19.554-44.533-30.37
				l50.156-114.885c10.064-37.506,31.654-70.938,61.633-95.592l114.403-93.915l9.838-8.091c4.537-3.77,9.794-6.226,15.263-7.41
				c8.008,7.209,14.064,17.046,19.612,26.458C468.908,725.994,471.067,729.81,470.472,733.837z"/>
		</g>
		<g>
			<path fill="#15000C" d="M233.99,927.671c-0.142,0-0.287-0.018-0.435-0.056c-0.9-0.24-1.433-1.165-1.196-2.064
				c15.407-57.953,52.432-114.378,94.321-143.751c22.382-15.69,75.401-55.889,75.935-56.292c0.738-0.558,1.799-0.418,2.362,0.325
				c0.563,0.743,0.418,1.801-0.326,2.364c-0.534,0.404-53.602,40.64-76.034,56.365c-41.279,28.944-77.78,84.627-92.996,141.856
				C235.42,927.172,234.738,927.671,233.99,927.671z"/>
		</g>
		<g>
			<path fill="#FFE99C" d="M540.696,577.974c-1.966,34.417-11.011,68.364-26.412,99.171c-9.122,18.179-21.295,36.06-38.89,45.928
				l-44.203-11.042c86.305-14.963,104.587-130.711,107.652-157.116c-86.714-16.275-154.461-74.716-171.253-148.307
				c-0.891,1.568-1.866,3.051-2.969,4.492c-20.443,27.244-95.421,20.427-95.391-40.949c0.025-51.583,74.746-40.484,98.522-35.641
				c0.128-0.678,0.255-1.314,0.425-1.949c2.124-8.688,5.01-17.164,8.532-25.385c4.237,3.986-3.098,7.161-2.892,20.217
				c0.041,1.992,0.337,4.027,0.845,6.061c0.423,1.569,0.974,3.179,1.651,4.749c0.037,11.783,1.43,23.313,4.01,34.504
				c14.93,65.409,70.091,118.8,143.027,141.3c2.457,2.671,4.702,5.47,6.693,8.565c5.252,8.14,8.215,17.383,9.694,26.962
				c0.296,1.866,0.507,3.773,0.718,5.68C541.17,562.758,541.124,570.473,540.696,577.974z"/>
		</g>
		<g>
			<path fill="#FF97ED" d="M611.864,749.63c-0.594,0.423-1.23,0.847-1.823,1.228c-24.592,16.052-55.196,19.64-84.57,19.795
				c-19.243,0.076-38.91-1.206-56.793-8.251c-17.926-7.044-34.069-20.658-40.206-38.887c-2.201-6.614-2.833-13.607-2.109-20.474
				l9.838-8.091c12.17-10.039,29.421-11.049,42.684-2.481l37.076,23.839C558.421,739.049,581.514,754.193,611.864,749.63z"/>
		</g>
		<g>
			<path fill="#FF97ED" d="M587.124,749.618c0.593,0.424,1.229,0.848,1.822,1.23c24.576,16.075,55.177,19.693,84.551,19.877
				c19.243,0.094,38.911-1.168,56.801-8.196c17.933-7.027,34.089-20.625,40.243-38.848c2.207-6.611,2.846-13.604,2.129-20.472
				l-9.83-8.1c-12.16-10.051-29.411-11.078-42.682-2.522l-37.099,23.803C640.578,739.089,617.47,754.21,587.124,749.618z"/>
		</g>
		<g>
			<path fill="#15000C" d="M327.154,392.325L327.154,392.325c-0.932,0-1.687-0.756-1.687-1.689
				c0.007-11.194,10.531-19.448,18.768-24.193l-40.706,5.407c-0.873,0.102-1.769-0.524-1.895-1.45
				c-0.122-0.924,0.527-1.773,1.453-1.895l51.124-6.791c0.85-0.115,1.651,0.433,1.858,1.262c0.208,0.832-0.244,1.689-1.044,1.99
				c-0.264,0.097-26.175,10.003-26.185,25.672C328.841,391.57,328.087,392.325,327.154,392.325z"/>
		</g>
		<g>
			<path fill="#15000C" d="M582.264,478.532c-20.936,0-37.078-8.766-37.335-8.909c-0.814-0.453-1.107-1.479-0.652-2.293
				c0.451-0.812,1.473-1.107,2.293-0.656c0.389,0.221,39.875,21.588,74.465-4.325c0.741-0.555,1.802-0.407,2.362,0.338
				c0.557,0.746,0.405,1.802-0.339,2.361C609.348,475.321,594.927,478.532,582.264,478.532z"/>
		</g>
		<g>
			<path fill="#15000C" d="M477.907,523.003c-0.778,0-1.476-0.539-1.647-1.329c-0.198-0.911,0.379-1.809,1.288-2.007
				c47.078-10.211,60.076-76.38,60.202-77.047c0.168-0.918,1.054-1.524,1.97-1.346c0.916,0.171,1.516,1.054,1.344,1.969
				c-0.128,0.69-13.529,69.035-62.798,79.722C478.144,522.992,478.023,523.003,477.907,523.003z"/>
		</g>
		<g>
			<path fill="#15000C" d="M691.959,523.107c-0.119,0-0.237-0.012-0.359-0.038c-49.266-10.735-62.594-79.093-62.722-79.783
				c-0.171-0.916,0.432-1.796,1.348-1.967c0.896-0.165,1.796,0.428,1.967,1.348c0.125,0.667,13.054,66.849,60.126,77.105
				c0.909,0.199,1.486,1.097,1.288,2.008C693.435,522.568,692.736,523.107,691.959,523.107z"/>
		</g>
		<g>
			<path fill="#FFD4DE" d="M638.925,187.138c-6.663,18.264-18.032,36.655-33.426,54.026c-3.817,4.363-7.93,8.684-12.298,12.879
				c-16.538,16.099-36.467,30.967-59.192,43.587c-6.487,3.6-13.185,7.029-20.138,10.248
				c-42.438,19.689-85.676,28.399-123.187,26.897c-3.603-0.129-7.121-0.385-10.596-0.725c-1.823-0.171-3.645-0.384-5.425-0.597
				c-2.204-0.256-4.365-0.553-6.484-0.893c2.124-8.688,5.01-17.164,8.532-25.385c23.551-55.218,76.936-98.51,143.83-116.153
				c7.207-1.947,14.54-3.554,22.043-4.864c0.593-0.085,1.229-0.21,1.823-0.295c14.2-2.367,28.824-3.589,43.871-3.582
				C605.696,182.29,622.65,183.951,638.925,187.138z"/>
		</g>
		<g>
			<path fill="#15000C" d="M473.749,448.826c-0.016,0-0.026,0-0.043,0c-23.661-0.012-45.902-9.236-62.623-25.976
				c-16.722-16.738-25.924-38.986-25.915-62.645c0.01-23.661,9.236-45.9,25.974-62.623c16.728-16.712,38.959-25.913,62.6-25.913
				c0.016,0,0.03,0,0.046,0c23.661,0.012,45.902,9.236,62.623,25.974c16.722,16.738,25.924,38.987,25.915,62.648
				c-0.01,23.659-9.236,45.898-25.974,62.622C519.624,439.623,497.39,448.826,473.749,448.826z M473.742,275.044
				c-22.742,0-44.122,8.85-60.215,24.926c-16.102,16.086-24.976,37.478-24.985,60.236c-0.01,22.76,8.84,44.16,24.926,60.261
				c16.086,16.101,37.48,24.974,60.238,24.985c0.013,0,0.03,0,0.043,0c22.742,0,44.126-8.852,60.218-24.926
				c16.102-16.086,24.976-37.478,24.985-60.236c0.01-22.76-8.84-44.16-24.926-60.261c-16.086-16.101-37.48-24.974-60.238-24.985
				C473.775,275.044,473.756,275.044,473.742,275.044z"/>
		</g>
		<g>
			<path fill="#FFE99C" d="M571.413,80.292c-0.47,8.604-3.823,16.953-7.684,24.75c-4.625,9.365-10.097,18.476-12.645,28.562
				c-4.289,17.122,0.025,35.943-6.68,52.259c0,0.041-0.042,0.041-0.042,0.085c-3.31,7.966-8.95,14.534-15.396,20.295
				c-4.537,4.153-9.456,7.837-14.332,11.437c-20.226,15.037-40.493,30.075-60.719,45.112
				c-27.646,20.543-56.055,41.935-73.829,71.258c-1.823-0.171-3.645-0.384-5.425-0.597c-2.204-0.256-4.365-0.553-6.484-0.893
				c2.124-8.688,5.01-17.164,8.532-25.385c23.551-55.218,76.936-98.51,143.83-116.153c-4.149-9.878-6.433-20.73-6.427-32.09
				C514.129,122.142,538.177,91,571.413,80.292z"/>
		</g>
		<g>
			<path fill="#15000C" d="M492.23,256.554c-0.55,0-1.091-0.27-1.414-0.766c-0.507-0.779-0.29-1.825,0.491-2.334l59.197-38.598
				c0.788-0.507,1.825-0.29,2.336,0.493c0.507,0.779,0.29,1.825-0.491,2.334l-59.197,38.598
				C492.866,256.465,492.547,256.554,492.23,256.554z"/>
		</g>
	</g>
</g>
</svg>
